<?xml version="1.0" encoding="iso-8859-1"?>
<!-- Generator: Adobe Illustrator 19.0.0, SVG Export Plug-In . SVG Version: 6.00 Build 0)  -->
<svg version="1.1" id="Capa_1" xmlns="http://www.w3.org/2000/svg" xmlns:xlink="http://www.w3.org/1999/xlink" x="0px" y="0px"
	 viewBox="0 0 385.37 385.37" style="enable-background:new 0 0 385.37 385.37;" xml:space="preserve">
<g>
	<path style="fill:#F48120;" d="M141.894,135.131l41.6-25.24c22.24-13.48,54.56-8,65,16l84.8,194c23.24,53.2-38.16,90.44-74.56,45.2
		l-132.76-164.96C109.654,179.851,119.654,148.651,141.894,135.131L141.894,135.131z"/>
	<path style="fill:#C96528;" d="M183.014,216.291c-3.554,1.88-7.959,0.524-9.839-3.03c-1.73-3.27-0.733-7.318,2.319-9.41
		l58.88-35.68c3.446-2.077,7.923-0.966,10,2.48c2.077,3.446,0.966,7.923-2.48,10L183.014,216.291z M130.614,205.891l-4.64-5.76
		c-1.535-1.886-2.875-3.923-4-6.08l58.6-36c3.435-2.11,7.93-1.035,10.04,2.4c2.11,3.435,1.035,7.93-2.4,10.04l0,0L130.614,205.891z
		 M216.694,312.651l-8.44-10.48c0.612-1.12,1.509-2.058,2.6-2.72l32.6-20c3.435-2.099,7.921-1.015,10.02,2.42
		c2.099,3.435,1.015,7.921-2.42,10.02l0,0l-32.6,20C217.903,312.22,217.311,312.476,216.694,312.651z M322.694,295.411l6,13.44
		l-42.44,25.44c-3.446,2.077-7.923,0.966-10-2.48s-0.966-7.923,2.48-10l42.44-25.56c0.479-0.283,0.989-0.512,1.52-0.68V295.411z
		 M274.134,184.651l5.88,13.48l-51.32,30.88c-3.413,2.132-7.908,1.093-10.04-2.32c-2.132-3.413-1.093-7.908,2.32-10.04
		L274.134,184.651z"/>
</g>
<g>
	
		<ellipse transform="matrix(-0.9275 -0.3738 0.3738 -0.9275 159.126 230.4953)" style="fill:#45B549;" cx="101.913" cy="99.818" rx="58.4" ry="24.64"/>
	
		<ellipse transform="matrix(-0.9952 -0.0978 0.0978 -0.9952 334.9025 132.7516)" style="fill:#45B549;" cx="170.703" cy="58.171" rx="24.64" ry="58.4"/>
</g>
<g>
</g>
<g>
</g>
<g>
</g>
<g>
</g>
<g>
</g>
<g>
</g>
<g>
</g>
<g>
</g>
<g>
</g>
<g>
</g>
<g>
</g>
<g>
</g>
<g>
</g>
<g>
</g>
<g>
</g>
</svg>
